<?xml version="1.0" encoding="UTF-8"?>
<svg version="1.1" xmlns="http://www.w3.org/2000/svg" width="506" height="99">
<path d="M0 0 C166.98 0 333.96 0 506 0 C506 32.67 506 65.34 506 99 C339.02 99 172.04 99 0 99 C0 66.33 0 33.66 0 0 Z " fill="#383838" transform="translate(0,0)"/>
<path d="M0 0 C42.24 0 84.48 0 128 0 C128 29.37 128 58.74 128 89 C108.85415777 89.02768963 89.70835214 89.05122047 70.5625 89.0625 C69.48878332 89.06315145 69.48878332 89.06315145 68.3933754 89.06381607 C25.42604134 89.08917303 -17.53460591 88.94860867 -60.5 88.5 C-61.64600048 88.48804218 -62.79200096 88.47608437 -63.97272873 88.46376419 C-77.64861595 88.32009813 -91.32436767 88.16614405 -105 88 C-105.32100909 86.55805234 -105.64186105 85.1160697 -105.96264648 83.67407227 C-106.14133774 82.87107193 -106.32002899 82.06807159 -106.50413513 81.24073792 C-107.709976 75.79172646 -108.88911156 70.36408268 -109.5 64.8125 C-110.00107813 60.99177928 -110.87599184 57.67175997 -112 54 C-112 53.67 -112 53.34 -112 53 C-109.03 53 -106.06 53 -103 53 C-103.00523682 51.55641113 -103.01047363 50.11282227 -103.01586914 48.62548828 C-103.03392971 43.28434872 -103.04543591 37.94321188 -103.05493164 32.60205078 C-103.05996943 30.28759304 -103.06679981 27.9731385 -103.07543945 25.65869141 C-103.08752924 22.3375571 -103.09323375 19.01646475 -103.09765625 15.6953125 C-103.10281754 14.65569366 -103.10797882 13.61607483 -103.11329651 12.54495239 C-103.11340981 11.10368484 -103.11340981 11.10368484 -103.11352539 9.63330078 C-103.115746 8.78502716 -103.11796661 7.93675354 -103.12025452 7.06277466 C-103 5 -103 5 -102 3 C-68.67 3 -35.34 3 -1 3 C-0.67 2.01 -0.34 1.02 0 0 Z " fill="#3C3C3C" transform="translate(378,8)"/>
<path d="M0 0 C92.07 0 184.14 0 279 0 C278.67 0.99 278.34 1.98 278 3 C244.67 3 211.34 3 177 3 C176.835 13.51875 176.67 24.0375 176.5 34.875 C176.44779297 38.15679199 176.39558594 41.43858398 176.34179688 44.81982422 C176.30067124 47.48144361 176.25964905 50.14306461 176.21875 52.8046875 C176.20799438 53.4675174 176.19723877 54.13034729 176.18615723 54.81326294 C176.16990295 55.81847488 176.16990295 55.81847488 176.15332031 56.84399414 C176.14371277 57.42910263 176.13410522 58.01421112 176.12420654 58.61705017 C175.9897002 68.08321896 176 77.52787629 176 87 C209.99 87.33 243.98 87.66 279 88 C279 88.33 279 88.66 279 89 C198.15 89 117.3 89 34 89 C36.68286752 86.31713248 37.81822528 85.59088736 41 84 C48.05140345 79.59076921 52.50207922 73.9645225 57 67 C57.680625 66.030625 58.36125 65.06125 59.0625 64.0625 C62.89798698 57.99995607 65.04060593 51.35787924 67 44.5 C67.62447567 42.31433515 68.30362346 40.14271022 69.0625 38 C70.10311145 34.67004337 70.55999125 31.45721164 71 28 C71.32635698 26.33195323 71.65725594 24.66475686 72 23 C72 22.67 72 22.34 72 22 C49.23 21.67 26.46 21.34 3 21 C3 20.67 3 20.34 3 20 C32.37 19.67 61.74 19.34 92 19 C92.33 18.34 92.66 17.68 93 17 C62.97 17 32.94 17 2 17 C1.67 14.69 1.34 12.38 1 10 C0.67364302 8.33195323 0.34274406 6.66475686 0 5 C0 4.67 0 4.34 0 4 C1.25058701 4.00222061 2.50117401 4.00444122 3.78965759 4.00672913 C15.54754531 4.02695845 27.30542951 4.04197112 39.06333065 4.05181217 C45.10887817 4.05704153 51.1544117 4.06414014 57.19995117 4.07543945 C63.02894288 4.08626645 68.85792109 4.09227643 74.68692207 4.09487724 C76.9161761 4.09673183 79.14542935 4.10035308 81.37467766 4.10573006 C84.48539734 4.11293799 87.59606049 4.11399105 90.70678711 4.11352539 C91.63826569 4.11712067 92.56974426 4.12071594 93.52944946 4.12442017 C97.58599247 4.53158811 97.58599247 4.53158811 101 3 C67.67 3 34.34 3 0 3 C0 2.01 0 1.02 0 0 Z " fill="#747474" transform="translate(99,8)"/>
<path d="M0 0 C32.01 0 64.02 0 97 0 C95.35 1.98 93.7 3.96 92 6 C87.6441197 14.87308949 84.77453447 25.07951667 85 35 C84.835 35.804375 84.67 36.60875 84.5 37.4375 C83.52581824 42.43018152 83.90527689 47.073746 85 52 C85 52.99 85 53.98 85 55 C84.01 55.66 83.02 56.32 82 57 C82 57.66 82 58.32 82 59 C82.61875 59.20625 83.2375 59.4125 83.875 59.625 C86.88336238 61.57158742 87.06805428 63.60505489 88 67 C88.64438717 68.67540664 89.31246699 70.34183216 90 72 C90.45375 73.175625 90.9075 74.35125 91.375 75.5625 C93.5244752 80.10946677 95.86495969 82.24330646 100 85 C66.01 85 32.02 85 -3 85 C-6.85970363 67.63133365 -6.85970363 67.63133365 -7.5 61.8125 C-8.00107813 57.99177928 -8.87599184 54.67175997 -10 51 C-10 50.67 -10 50.34 -10 50 C-7.03 50 -4.06 50 -1 50 C-1.00523682 48.55641113 -1.01047363 47.11282227 -1.01586914 45.62548828 C-1.03392971 40.28434872 -1.04543591 34.94321188 -1.05493164 29.60205078 C-1.05996943 27.28759304 -1.06679981 24.9731385 -1.07543945 22.65869141 C-1.08752924 19.3375571 -1.09323375 16.01646475 -1.09765625 12.6953125 C-1.10281754 11.65569366 -1.10797882 10.61607483 -1.11329651 9.54495239 C-1.11340981 8.10368484 -1.11340981 8.10368484 -1.11352539 6.63330078 C-1.115746 5.78502716 -1.11796661 4.93675354 -1.12025452 4.06277466 C-1 2 -1 2 0 0 Z " fill="#2F2F2F" transform="translate(276,11)"/>
<path d="M0 0 C42.24 0 84.48 0 128 0 C128 0.66 128 1.32 128 2 C96.32 2.33 64.64 2.66 32 3 C31.27118574 8.10169979 30.86463056 12.53360276 30.875 17.625 C30.87242187 18.89601563 30.86984375 20.16703125 30.8671875 21.4765625 C30.89174838 24.82255076 30.89174838 24.82255076 31.5 27.33154297 C32.0647474 30.34555132 32.12958983 33.15261188 32.1328125 36.21875 C32.13410156 37.39824219 32.13539063 38.57773437 32.13671875 39.79296875 C32.13285156 41.01628906 32.12898438 42.23960938 32.125 43.5 C32.12886719 44.72332031 32.13273437 45.94664063 32.13671875 47.20703125 C32.13542969 48.38652344 32.13414062 49.56601562 32.1328125 50.78125 C32.13168457 51.85439453 32.13055664 52.92753906 32.12939453 54.03320312 C32.00842822 56.80675513 31.57875171 59.29269646 31 62 C30.96227087 63.9996441 30.95350094 66.00054061 31 68 C27.535 68.495 27.535 68.495 24 69 C24 69.99 24 70.98 24 72 C25.98 72.33 27.96 72.66 30 73 C30 77.62 30 82.24 30 87 C78.51 87.495 78.51 87.495 128 88 C128 88.33 128 88.66 128 89 C111.34541621 89.02333731 94.69083771 89.04098328 78.03624153 89.05181217 C70.3036151 89.05697336 62.57099882 89.06401269 54.83837891 89.07543945 C48.10038429 89.0853917 41.36239702 89.09185472 34.62439525 89.09408849 C31.05510033 89.09539468 27.48582643 89.09847474 23.91653824 89.10573006 C19.93670501 89.11375463 15.95689254 89.11399079 11.97705078 89.11352539 C10.19249481 89.1189183 10.19249481 89.1189183 8.37188721 89.12442017 C7.29212616 89.1230455 6.21236511 89.12167084 5.09988403 89.12025452 C4.1578116 89.12117631 3.21573917 89.1220981 2.24511909 89.12304783 C0 89 0 89 -2 88 C-4.69655446 87.84323225 -7.37129977 87.74163685 -10.0703125 87.68359375 C-10.86654022 87.66281265 -11.66276794 87.64203156 -12.48312378 87.62062073 C-15.03032685 87.55515851 -17.57763425 87.49625585 -20.125 87.4375 C-21.85027127 87.3943116 -23.57553193 87.35069721 -25.30078125 87.30664062 C-29.53374685 87.19948055 -33.76681753 87.09820377 -38 87 C-38 86.67 -38 86.34 -38 86 C-37.113125 85.95875 -36.22625 85.9175 -35.3125 85.875 C-31.02141154 84.74150493 -29.26437036 82.62909189 -27 79 C-20.64868233 67.48411605 -19.81323898 54.15805272 -19.875 41.25 C-19.87113281 40.42628906 -19.86726563 39.60257813 -19.86328125 38.75390625 C-19.86981879 34.69409497 -20.02168204 30.96289666 -21 27 C-21.11859375 26.30519531 -21.2371875 25.61039063 -21.359375 24.89453125 C-23.01220195 16.0849636 -25.94178792 9.64656967 -33 4 C-22.44 3.67 -11.88 3.34 -1 3 C-0.67 2.01 -0.34 1.02 0 0 Z " fill="#464646" transform="translate(378,8)"/>
<path d="M0 0 C5.33040036 -0.0252166 10.66076404 -0.04309672 15.99121094 -0.05493164 C17.79460252 -0.059879 19.59799029 -0.06663844 21.40136719 -0.07543945 C34.30182184 -0.1366986 47.12209762 0.23131229 60 1 C59.98120789 2.18032303 59.98120789 2.18032303 59.96203613 3.38449097 C59.84288862 10.88409738 59.72513178 18.38372384 59.60884857 25.88337517 C59.54905276 29.73687808 59.48876193 33.59037179 59.42724609 37.44384766 C59.03636168 61.22060267 59.03636168 61.22060267 59 85 C56.6972134 86.1513933 55.39321034 86.12670962 52.83251953 86.12939453 C51.97046906 86.13254669 51.10841858 86.13569885 50.22024536 86.13894653 C48.81571609 86.13591019 48.81571609 86.13591019 47.3828125 86.1328125 C46.41528046 86.13376923 45.44774841 86.13472595 44.45089722 86.13571167 C42.39467301 86.13639356 40.33844666 86.13453867 38.28222656 86.13037109 C35.17247499 86.12508076 32.06287171 86.13028547 28.953125 86.13671875 C19.25868477 86.13964882 9.64078665 86.14047571 0 85 C0.721875 84.38125 1.44375 83.7625 2.1875 83.125 C8.43946204 76.8197542 10.73205603 68.54483979 12 60 C12.33 58.02 12.66 56.04 13 54 C-1.85 53.505 -1.85 53.505 -17 53 C-17.020625 49.57625 -17.04125 46.1525 -17.0625 42.625 C-17.071604 41.54686035 -17.08070801 40.4687207 -17.09008789 39.35791016 C-17.09258545 38.51019043 -17.09508301 37.6624707 -17.09765625 36.7890625 C-17.10289307 35.91975098 -17.10812988 35.05043945 -17.11352539 34.15478516 C-17 32 -17 32 -16 30 C-6.43 29.67 3.14 29.34 13 29 C11.86121268 18.7509141 9.59455712 13.18911424 5 4 C12.59 3.67 20.18 3.34 28 3 C28.33 2.34 28.66 1.68 29 1 C19.43 1 9.86 1 0 1 C0 0.67 0 0.34 0 0 Z " fill="#5B5B5B" transform="translate(216,10)"/>
<path d="M0 0 C17.82 0 35.64 0 54 0 C52.35 1.98 50.7 3.96 49 6 C44.6441197 14.87308949 41.77453447 25.07951667 42 35 C41.835 35.804375 41.67 36.60875 41.5 37.4375 C40.52581824 42.43018152 40.90527689 47.073746 42 52 C42 52.99 42 53.98 42 55 C41.01 55.66 40.02 56.32 39 57 C39 57.66 39 58.32 39 59 C39.61875 59.20625 40.2375 59.4125 40.875 59.625 C43.88336238 61.57158742 44.06805428 63.60505489 45 67 C45.64438717 68.67540664 46.31246699 70.34183216 47 72 C47.45375 73.175625 47.9075 74.35125 48.375 75.5625 C50.5244752 80.10946677 52.86495969 82.24330646 57 85 C37.86 85 18.72 85 -1 85 C-1.04010881 64.36624586 -1.04010881 64.36624586 -1.04882812 55.59375 C-1.05481376 49.59992593 -1.06190665 43.60611709 -1.07543945 37.61230469 C-1.08627786 32.78182178 -1.09227887 27.95135518 -1.09487724 23.12086105 C-1.09672976 21.27481199 -1.10034709 19.42876385 -1.10573006 17.58272171 C-1.11295312 15.00385839 -1.1139904 12.42506315 -1.11352539 9.84619141 C-1.11712067 9.07727066 -1.12071594 8.30834991 -1.12442017 7.51612854 C-1.11405216 2.22810432 -1.11405216 2.22810432 0 0 Z " fill="#1B1B1B" transform="translate(319,11)"/>
<path d="M0 0 C2.0625 0.4375 2.0625 0.4375 4 1 C4 2.98 4 4.96 4 7 C-1.61 7 -7.22 7 -13 7 C-13 6.01 -13 5.02 -13 4 C-10.69 4 -8.38 4 -6 4 C-8.31 3.67 -10.62 3.34 -13 3 C-13 2.67 -13 2.34 -13 2 C-12.14535156 1.93941406 -11.29070312 1.87882812 -10.41015625 1.81640625 C-8.75306641 1.69072266 -8.75306641 1.69072266 -7.0625 1.5625 C-5.96035156 1.48128906 -4.85820312 1.40007812 -3.72265625 1.31640625 C-1.08890097 1.29581916 -1.08890097 1.29581916 0 0 Z " fill="#8F8F8F" transform="translate(502,88)"/>
<path d="M0 0 C13.2 0 26.4 0 40 0 C40 0.99 40 1.98 40 3 C34.39 3 28.78 3 23 3 C23 2.34 23 1.68 23 1 C15.41 1 7.82 1 0 1 C0 0.67 0 0.34 0 0 Z " fill="#808080" transform="translate(466,76)"/>
<path d="M0 0 C3.3 0 6.6 0 10 0 C10 0.99 10 1.98 10 3 C8.35 3 6.7 3 5 3 C4.67 4.32 4.34 5.64 4 7 C0.37 7 -3.26 7 -7 7 C-7 6.01 -7 5.02 -7 4 C-5.02 4 -3.04 4 -1 4 C-3.97 3.505 -3.97 3.505 -7 3 C-7 2.67 -7 2.34 -7 2 C-3.535 1.505 -3.535 1.505 0 1 C0 0.67 0 0.34 0 0 Z " fill="#929292" transform="translate(496,80)"/>
<path d="M0 0 C1.65 0 3.3 0 5 0 C5 1.98 5 3.96 5 6 C-0.61 6 -6.22 6 -12 6 C-11.67 5.34 -11.34 4.68 -11 4 C-9.00390625 3.62109375 -9.00390625 3.62109375 -6.5625 3.4375 C-3.15371795 3.1938825 -3.15371795 3.1938825 0 2 C0 1.34 0 0.68 0 0 Z " fill="#585858" transform="translate(501,83)"/>
<path d="M0 0 C2.0625 0.4375 2.0625 0.4375 4 1 C4 2.32 4 3.64 4 5 C-1.61 4.34 -7.22 3.68 -13 3 C-13 2.67 -13 2.34 -13 2 C-12.14535156 1.93941406 -11.29070312 1.87882812 -10.41015625 1.81640625 C-8.75306641 1.69072266 -8.75306641 1.69072266 -7.0625 1.5625 C-5.96035156 1.48128906 -4.85820312 1.40007812 -3.72265625 1.31640625 C-1.08890097 1.29581916 -1.08890097 1.29581916 0 0 Z " fill="#838383" transform="translate(502,88)"/>
<path d="M0 0 C1.65 0 3.3 0 5 0 C5 1.32 5 2.64 5 4 C3.02 4 1.04 4 -1 4 C-1.33 3.34 -1.66 2.68 -2 2 C-1.34 2 -0.68 2 0 2 C0 1.34 0 0.68 0 0 Z " fill="#4F4F4F" transform="translate(501,83)"/>
</svg>
