<?xml version="1.0" encoding="UTF-8"?>
<svg width="800px" height="800px" viewBox="0 0 800 800" version="1.1" xmlns="http://www.w3.org/2000/svg" xmlns:xlink="http://www.w3.org/1999/xlink">
    <title>logo-cue-black</title>
    <g id="Page-1" stroke="none" stroke-width="1" fill="none" fill-rule="evenodd">
        <g id="logo" fill="#000000" fill-rule="nonzero">
            <g id="asset">
                <path d="M400.010744,146 L565.796127,146 C568.721806,146 568.513972,146.015032 568.513972,148.692357 C568.496117,206.63837 568.496117,264.569039 568.496117,322.515363 L568.496117,466.423246 C568.496117,467.021432 568.496117,467.619618 568.420542,468.217805 C568.269392,469.309469 567.952599,469.579016 566.866599,469.653659 C566.670932,469.66921 566.459737,469.653659 566.263035,469.653659 L234.407569,469.653659 C231.617096,469.653659 231.481372,469.518886 231.481372,466.677242 L231.481372,450.223488 L231.481372,149.694552 C231.481372,148.841955 231.466257,148.004391 231.466257,147.151794 C231.466257,146.418834 231.843407,146.04489 232.582488,146.029961 C233.140396,146.014929 233.683603,146.014929 234.241615,146.014929 C289.49316,146 344.759302,146 400.010744,146 L400.010744,146 Z M400.026273,294.873348 L538.780699,294.873348 C539.082999,294.873348 539.384263,294.888898 539.685527,294.873348 C540.787057,294.798704 541.209448,294.454513 541.360598,293.332784 C541.480728,292.395202 541.54124,291.450922 541.54177,290.505654 C541.556264,252.019566 541.556264,213.533893 541.556264,175.032877 C541.556264,174.628972 541.586287,174.22517 541.54177,173.836193 C541.420643,172.609652 540.711482,171.966472 539.474332,171.921686 C538.720654,171.891725 537.96594,171.921686 537.212262,171.921686 L262.568836,171.921686 C261.81464,171.921686 261.060444,171.876796 260.306249,171.936615 C259.295616,172.011362 258.54142,172.75925 258.405696,173.746517 C258.360455,174.0905 258.373145,174.449516 258.373145,174.793499 C258.373145,213.234696 258.373145,251.675376 258.390581,290.116885 C258.390581,290.909974 258.450937,291.717577 258.511294,292.510667 C258.707374,294.604838 259.039179,294.903412 261.105686,294.903412 C307.427594,294.873348 353.719583,294.873348 400.026273,294.873348 Z M399.950698,443.567757 L538.871803,443.567757 C539.06747,443.567757 539.278665,443.582272 539.474332,443.567757 C540.922678,443.507628 541.375091,443.118859 541.480689,441.713069 C541.54177,441.024688 541.556264,440.321793 541.556264,439.618898 L541.556264,325.477267 C541.556264,324.579469 541.526241,323.681671 541.496218,322.78491 C541.420643,321.168667 541.028275,320.809962 539.368734,320.779897 C538.766206,320.765383 538.162642,320.779897 537.559078,320.779897 L261.362123,320.779897 C260.954847,320.779897 260.547571,320.765383 260.15541,320.795448 C259.024168,320.900157 258.632006,321.288926 258.556535,322.38059 C258.481167,323.367546 258.405696,324.370052 258.405696,325.372559 C258.390581,363.424261 258.390581,401.46145 258.405696,439.51419 C258.405696,440.366372 258.481167,441.20404 258.57165,442.041708 C258.692259,443.028664 259.11465,443.41847 260.140295,443.537693 C260.487214,443.582272 260.849249,443.552207 261.196169,443.552207 C307.427594,443.567757 353.68956,443.567757 399.950698,443.567757 L399.950698,443.567757 Z M433.300957,631.389984 C432.51622,631.913526 432.033784,632.617458 431.762542,633.394997 C431.219024,634.950074 430.103001,636.117418 429.16815,637.373921 C427.991046,638.959063 426.679356,640.499626 425.23101,641.830772 C423.435848,643.476044 421.626192,645.15138 419.408639,646.258595 C419.317535,646.303174 419.211937,646.333239 419.151892,646.407883 C416.965397,648.441924 414.023153,649.085726 411.519865,650.551645 C410.720635,651.015058 409.724703,651.164345 408.804346,651.433892 C406.209954,652.196917 403.631091,652.959941 401.036699,653.707415 C400.704376,653.79761 400.343066,653.872253 400.010744,653.872253 C394.475144,653.886767 388.955072,653.886767 383.418437,653.872253 C382.936,653.872253 382.453563,653.662836 381.971126,653.542577 C381.005217,653.288581 380.040344,653.019034 379.059941,652.765038 C378.19963,652.525556 377.340354,652.27156 376.480042,652.032079 C376.284376,651.971949 376.103203,651.882791 375.907537,651.852726 C373.52434,651.553115 371.472431,650.431386 369.330453,649.429916 C366.524865,648.127798 364.066094,646.393369 361.788495,644.373842 C360.974771,643.655396 360.40123,642.66844 359.586471,641.951031 C358.123631,640.664464 357.248826,638.973577 356.177319,637.433014 C355.363596,636.266706 354.850101,634.87543 354.277595,633.559835 C353.7641,632.422555 353.266134,631.270761 352.904824,630.088902 C352.496927,628.757756 352.195663,627.396545 351.908892,626.035334 C350.581673,619.873082 350.204834,613.636185 350.218929,607.323609 C350.280409,584.498185 350.234857,561.658248 350.234857,538.817274 C350.234857,536.229625 350.386007,536.080338 352.934847,536.064787 L362.43761,536.064787 C362.890024,536.064787 363.342438,536.080338 363.794852,536.124917 C364.413945,536.19956 364.805278,536.573816 364.85083,537.202067 C364.896382,537.890448 364.926405,538.593343 364.926405,539.296237 C364.926405,562.331078 364.956428,585.365918 364.896382,608.400759 C364.880853,613.32206 365.665589,618.123102 366.434796,622.954208 C366.540394,623.627038 366.797142,624.300905 367.082877,624.94367 C367.927659,626.842938 368.666843,628.8324 369.73835,630.597931 C370.82435,632.39249 371.864799,634.337373 373.795582,635.489167 C375.379548,637.821783 378.109561,638.480099 380.311585,639.90144 C380.598355,640.080792 380.9607,640.1855 381.291988,640.275695 C384.263219,640.963039 387.219956,641.920967 390.236739,642.249606 C393.660384,642.623861 397.159604,642.549218 400.629837,642.414444 C402.77078,642.339801 404.912758,641.935481 406.904622,641.008655 C407.221415,640.85833 407.568231,640.799237 407.915047,640.753622 C409.710209,640.544205 411.263118,639.766666 412.68144,638.689516 C412.877107,638.540229 413.073809,638.37539 413.299498,638.270682 C416.075063,636.925022 418.368191,635.010203 420.524663,632.826875 C422.063077,631.270761 423.209123,629.506267 424.521849,627.815379 C426.060263,625.825917 427.026172,623.552394 428.232264,621.413645 C428.865851,620.30643 429.122598,619.005349 429.544989,617.778911 C429.921828,616.701761 430.359748,615.640162 430.615461,614.548497 C431.007829,612.903226 431.249047,611.227889 431.565841,609.567067 C432.003761,607.2189 432.440646,604.885248 432.863037,602.537081 C432.938611,602.148312 432.954141,601.743992 432.954141,601.355222 C432.998657,591.334305 433.074232,581.31235 433.089761,571.290396 C433.104255,560.326065 433.089761,549.34722 433.089761,538.383925 C433.089761,538.084314 433.074232,537.785739 433.104255,537.486128 C433.209853,536.483621 433.512152,536.154981 434.507049,536.094852 C435.156165,536.050273 435.819774,536.094852 436.467854,536.094852 C439.590235,536.094852 442.698122,536.080338 445.820503,536.080338 C447.267814,536.080338 447.448987,536.289755 447.524561,537.725609 C447.554584,538.219087 447.539055,538.728116 447.539055,539.221594 L447.539055,647.499547 C447.539055,648.248057 447.539055,648.995531 447.464516,649.744042 C447.358918,650.820155 447.237791,650.940414 446.181813,651.015058 C445.231433,651.075188 444.26656,651.059637 443.31618,651.059637 C440.797363,651.059637 438.293039,651.075188 435.774222,651.029572 C434.26583,651.015058 434.145739,650.924864 434.114681,649.399851 C434.054635,646.258595 434.070164,643.117339 434.070164,639.976083 C434.070164,637.837334 434.100187,635.683033 434.114681,633.544284 C434.100187,632.766745 434.100187,631.973656 433.300957,631.389984 L433.300957,631.389984 Z M280.324065,653.903355 C277.60896,653.903355 274.893959,653.93342 272.178854,653.888841 C271.500129,653.87329 270.821301,653.619294 270.157692,653.454456 C269.961611,653.409877 269.780542,653.290654 269.599577,653.245039 C266.914702,652.602274 264.229723,651.989573 261.559963,651.301192 C260.745411,651.091775 259.961089,650.747585 259.176767,650.433459 C257.698502,649.835273 256.190213,649.281665 254.742178,648.593284 C253.580706,648.040714 252.494706,647.322268 251.39359,646.663952 C251.227636,646.559243 251.106923,646.335312 250.941073,646.290733 C248.995279,645.826284 247.713094,644.301271 246.174576,643.224121 C244.168529,641.832845 242.358459,640.142995 240.653987,638.407529 C238.768549,636.49271 237.094204,634.368475 235.329479,632.334434 C235.269122,632.25979 235.17864,632.185146 235.133398,632.110503 C234.047398,630.225749 232.976409,628.326482 231.90542,626.441728 C231.633971,625.962764 231.377431,625.469286 231.090971,625.005873 C230.231177,623.644662 229.642936,622.178743 229.175303,620.63818 C228.737901,619.17226 228.028946,617.795499 227.440705,616.375195 C227.259739,615.910745 227.033429,615.462883 226.912716,614.983919 C226.068037,611.304606 225.223359,607.609743 224.439036,603.914879 C224.227841,602.897859 224.077002,601.850774 224.06199,600.803688 C224.016645,596.121869 224.077002,591.425536 224.001634,586.743717 C223.956393,584.095939 224.861428,581.643063 225.374198,579.115545 C225.721118,577.365564 226.309359,575.660163 226.550785,573.894632 C226.852463,571.681239 227.712153,569.691777 228.617188,567.687801 C228.843499,567.194323 229.130062,566.685294 229.220545,566.161751 C229.537338,564.397257 230.562982,562.975917 231.347408,561.420839 C232.282569,559.536086 233.444041,557.830684 234.545053,556.065153 C235.133398,555.138327 235.72164,554.25608 236.445606,553.432926 C237.72779,551.982557 238.859032,550.381865 240.20147,548.976075 C241.574137,547.54022 243.09754,546.238102 244.605932,544.951535 C245.933254,543.829806 247.351163,542.782721 248.753957,541.7657 C249.523164,541.212093 250.337716,540.718615 251.16728,540.270753 C253.354396,539.058829 255.481259,537.772262 257.864456,536.964658 C259.23702,536.501245 260.564446,535.903059 261.937009,535.438609 C263.068355,535.04984 264.244838,534.751265 265.40631,534.451654 C273.144245,532.387548 281.017904,532.492256 288.906678,533.060378 C289.856955,533.135022 290.792116,533.374503 291.712162,533.599471 C294.593221,534.272301 297.504303,534.870488 300.340121,535.708156 C302.195329,536.261763 303.975272,537.113946 305.739997,537.9371 C307.353986,538.700125 308.967976,539.507728 310.446137,540.494684 C312.603127,541.930538 314.729887,543.410972 316.645554,545.176503 C318.847785,547.19603 320.718108,549.469553 322.271741,551.936942 C323.599064,554.046663 325.001857,556.185413 325.680685,558.682867 C326.253812,560.837167 327.24933,562.886759 327.837778,565.040022 C328.335744,566.864646 328.561434,568.7494 328.832675,570.619639 C328.969331,571.501887 328.591457,571.906207 327.702158,572.070008 C327.354928,572.130138 327.008008,572.144652 326.645973,572.144652 C323.327615,572.144652 320.009154,572.160203 316.690796,572.144652 C314.835484,572.130138 314.398082,571.98085 314.066174,570.15519 C313.628771,567.74793 312.527656,565.623695 311.622724,563.43933 C310.491379,560.702394 309.058459,558.070166 306.991952,555.841222 C305.709871,554.449947 304.518272,552.969513 303.115479,551.69746 C300.204293,549.050718 296.825579,547.226095 292.979232,546.148944 C287.699965,544.65296 282.360342,543.934514 276.91512,544.518187 C274.486682,544.772183 272.088371,545.400434 269.690059,545.879398 C268.800139,546.05875 267.925231,546.283718 267.065541,546.582293 C266.220862,546.866353 265.421425,547.285187 264.606873,547.643892 C263.97339,547.928989 263.294562,548.138406 262.691205,548.497111 C260.835894,549.588775 258.859973,550.546703 257.230973,551.892363 C254.938259,553.791631 252.509717,555.571676 250.790234,558.070166 C250.533797,558.428871 250.141636,558.698418 249.870084,559.057122 C249.296957,559.804596 248.784083,560.583171 248.225968,561.345159 C247.848922,561.868702 247.366174,562.333151 247.049485,562.886759 C245.857886,565.009958 244.6813,567.134193 243.565173,569.288493 C243.233264,569.945773 243.082425,570.694283 242.856218,571.397178 C242.75062,571.725818 242.705379,572.085559 242.539425,572.399685 C241.136631,575.076491 240.322182,577.919172 240.065746,580.925655 C240.005389,581.658614 239.748952,582.376023 239.598113,583.123497 C239.371906,584.290842 239.175826,585.4727 238.949515,586.639008 C238.376388,589.630977 238.285802,592.666488 238.451756,595.703035 C238.572469,597.871849 238.843917,600.056214 239.175826,602.209478 C239.552872,604.573195 239.990274,606.921362 240.563504,609.2405 C240.970781,610.855707 241.679631,612.39627 242.252862,613.981413 C242.403701,614.400247 242.55454,614.819081 242.720494,615.237915 C243.233264,616.524482 243.700897,617.841114 244.304253,619.097617 C244.982978,620.533471 245.676817,621.98384 246.551726,623.314986 C248.361692,626.097537 250.292475,628.804409 252.751143,631.093482 C254.09358,632.349985 255.285179,633.890548 256.838812,634.80286 C258.588422,635.834394 259.991215,637.435087 262.042607,638.018759 C262.70632,638.212626 263.264435,638.69159 263.897918,639.005715 C264.742597,639.424549 265.572161,639.933578 266.477196,640.202088 C272.420176,641.997684 278.453638,643.20857 284.713412,642.356388 C286.342413,642.132457 287.911161,641.57885 289.510035,641.174529 C289.992679,641.055307 290.460311,640.830339 290.942955,640.755695 C292.466358,640.546278 293.839026,639.978157 295.166348,639.230683 C296.131739,638.69159 297.127257,638.228176 298.10766,637.719148 C299.02781,637.22567 299.827247,636.538326 300.687041,635.984718 C302.180317,635.012277 303.266318,633.66558 304.638882,632.618495 C304.804836,632.499272 305.031146,632.424628 305.121629,632.275341 C306.117147,630.719227 307.700906,629.672142 308.575815,628.012356 C309.224413,626.785918 310.1897,625.723282 310.853413,624.511359 C311.848931,622.672221 312.753966,620.801981 313.568415,618.8882 C313.990806,617.900207 314.171771,616.794029 314.413197,615.731393 C314.729887,614.325603 315.001439,612.919813 315.257875,611.498473 C315.484082,610.332165 315.966726,609.793071 317.158325,609.778557 C320.878822,609.733978 324.599718,609.733978 328.320215,609.778557 C329.601882,609.793071 329.934205,610.197391 329.753032,611.483959 C329.541837,612.889748 329.210549,614.295538 328.863733,615.6723 C328.24464,618.03498 327.672135,620.398698 326.887295,622.702286 C326.133203,624.915679 325.288524,627.114558 324.217535,629.178664 C323.101305,631.317413 321.638258,633.276811 320.310832,635.310852 C320.06951,635.685107 319.873429,636.103941 319.571751,636.433617 C318.184072,637.988695 317.037715,639.724161 315.348358,641.009691 C314.956197,641.309303 314.684645,641.742651 314.307599,642.086841 C313.794725,642.551291 313.251725,642.984639 312.723736,643.417988 C312.603127,643.508182 312.422058,643.538247 312.331575,643.642955 C310.808172,645.602353 308.409861,646.349826 306.524423,647.815746 C306.177503,648.085293 305.770227,648.29471 305.362951,648.488576 C303.73395,649.267151 302.104846,650.014625 300.46073,650.762099 C300.053454,650.942488 299.631166,651.12184 299.193764,651.241063 C296.765222,651.8548 294.276428,652.303699 291.923358,653.111302 C289.479805,653.94897 287.006126,653.963484 284.502216,653.993549 C283.099422,654.008063 281.681617,653.993549 280.278823,653.993549 C280.324065,653.963484 280.324065,653.93342 280.324065,653.903355 L280.324065,653.903355 Z M485.612225,597.317205 C486.668203,597.242561 487.724181,597.302691 488.779123,597.302691 C507.78465,597.28714 526.790177,597.257075 545.795704,597.257075 C555.147317,597.257075 564.499966,597.28714 573.85158,597.302691 C574.499661,597.302691 575.133247,597.242561 575.993558,597.197983 C575.993558,593.996597 576.008052,591.005665 575.993558,588.028211 C575.978029,586.038748 575.978029,584.064837 575.374466,582.119954 C574.997626,580.893516 574.922052,579.577921 574.666339,578.305868 C574.258442,576.362021 573.791534,574.431652 573.353614,572.487806 C573.157948,571.620072 573.082373,570.69221 572.750051,569.870092 C571.543958,566.982832 570.834797,563.917257 569.371957,561.134705 C568.722842,559.908268 568.361532,558.502478 567.546772,557.425328 C566.038381,555.45038 565.163576,553.027569 563.20277,551.367784 C562.976046,551.187395 562.794873,550.88882 562.719298,550.619273 C562.433563,549.646831 561.67885,549.048645 560.969688,548.435945 C560.668424,548.180912 560.381654,547.896851 560.094883,547.61279 C558.888791,546.371839 557.832814,544.950498 556.460043,543.933478 C553.383214,541.659955 550.336408,539.296237 546.791636,537.696581 C545.961347,537.322326 545.102071,537.038265 544.317335,536.60388 C542.326507,535.482151 540.154506,534.958609 537.966975,534.435066 C537.032125,534.225649 536.111768,534.001718 535.176917,533.792301 C534.000848,533.538305 532.823743,533.194114 531.632145,533.089406 C526.518935,532.640507 521.390197,532.580377 516.262494,532.969147 C515.462228,533.029276 514.648505,533.029276 513.863768,533.194114 C511.902963,533.582884 509.942157,534.061848 507.981352,534.480682 C504.828948,535.137961 501.887739,536.424528 499.006577,537.785739 C497.845002,538.339347 496.789024,539.102371 495.627449,539.685007 C492.927459,541.046218 490.574285,542.886392 488.342238,544.890369 C487.165134,545.953005 485.989064,547.044669 484.903064,548.196463 C483.65142,549.527609 482.308672,550.844241 481.328269,552.369253 C479.835407,554.658327 478.371532,556.976429 477.029819,559.370211 C475.4003,562.271985 474.284277,565.367625 473.152725,568.418687 C471.961126,571.680202 471.191919,575.105519 470.468264,578.500771 C469.472332,583.136974 469.276665,587.894474 469.185561,592.620872 C469.095493,597.705974 469.366734,602.792114 470.271562,607.802572 C470.66393,609.956873 471.357563,612.065557 471.704379,614.219858 C472.307942,617.988328 473.877415,621.429196 475.234657,624.94367 C475.701565,626.155594 476.366209,627.247258 476.998761,628.368987 C477.843543,629.864971 478.311486,631.584887 479.668728,632.782296 C479.804348,632.901519 479.865429,633.12545 479.985521,633.290288 C480.981453,634.711629 481.856258,636.266706 483.017833,637.538759 C485.325455,640.080792 487.724181,642.579283 490.619837,644.494101 C491.207872,644.88287 491.690308,645.406413 492.279378,645.765117 C493.335356,646.423433 494.421356,647.036134 495.521851,647.619806 C496.351104,648.068705 497.226944,648.42741 498.08622,648.83173 C498.809875,649.160369 499.534566,649.50456 500.27375,649.818685 C501.374244,650.297649 502.430222,650.91035 503.576268,651.224475 C506.47296,652.002014 509.444191,652.571172 512.325354,653.378775 C513.456906,653.692901 514.557401,653.902318 515.718976,653.902318 C520.590967,653.916832 525.478487,653.932383 530.350478,653.916832 C532.100088,653.916832 533.864192,653.962448 535.523733,653.169358 C535.870549,653.00452 536.308469,653.00452 536.700838,652.915362 C538.012527,652.601237 539.355275,652.361755 540.652471,651.957435 C542.93007,651.25454 545.358819,651.179896 547.515291,649.84875 C549.446073,648.652377 551.753695,648.113284 553.638926,646.767624 C554.650387,646.049178 555.796433,645.511121 556.731284,644.703518 C558.269698,643.4014 559.883688,642.190513 561.286482,640.724594 C562.583678,639.377897 563.56408,637.748176 564.966874,636.506188 C565.102495,636.386965 565.102495,636.131932 565.208093,635.968131 C565.359242,635.713098 565.540415,635.474653 565.706059,635.21962 C566.475266,634.127956 567.290025,633.066357 567.999186,631.929077 C569.386451,629.685619 570.729199,627.412096 571.498406,624.854512 C571.558452,624.67516 571.725131,624.524836 571.799671,624.345484 C572.464315,622.909629 573.33912,621.548418 573.459212,619.888633 C573.489235,619.454248 573.715959,619.035413 573.85158,618.602065 C574.243948,617.375628 574.680833,616.14919 574.997626,614.907202 C575.254374,613.890181 574.862006,613.412254 573.85158,613.217351 C573.610362,613.172772 573.353614,613.172772 573.096867,613.172772 C569.673222,613.172772 566.26407,613.142708 562.840425,613.172772 C561.045263,613.187286 560.36716,613.815538 559.959263,615.595583 C559.748067,616.523445 559.70355,617.524915 559.281159,618.348069 C558.104055,620.621592 557.153675,622.999824 555.872008,625.228768 C554.499237,627.606999 552.598477,629.58091 551.060063,631.824369 C550.848867,632.138494 550.442005,632.317846 550.139706,632.572879 C549.838442,632.826875 549.461603,633.036292 549.234878,633.350418 C548.013257,635.130463 546.006899,635.95258 544.468485,637.329342 C544.151691,637.613403 543.669255,637.718111 543.246864,637.911977 C542.884518,638.076816 542.477656,638.197075 542.160863,638.406492 C539.038482,640.529691 535.298044,640.829302 531.797788,641.816258 C530.787363,642.100319 529.731385,642.309736 528.690937,642.339801 C525.327337,642.39993 521.963738,642.38438 518.600138,642.339801 C517.709804,642.325287 516.804977,642.11587 515.945701,641.906452 C514.542907,641.562262 513.154607,641.098849 511.751813,640.799237 C510.470146,640.529691 509.217467,640.261181 508.07142,639.5728 C507.045466,638.944549 505.990523,638.346362 504.888994,637.897463 C502.898165,637.08986 501.419796,635.579362 499.760255,634.337373 C498.267393,633.20113 497.000219,631.765276 495.687494,630.404065 C494.481402,629.162076 493.244252,627.921125 492.233826,626.529849 C491.16232,625.033865 490.227469,623.418658 489.428239,621.757835 C487.648606,618.018393 485.898996,614.264437 485.340984,610.091646 C485.279903,609.642747 485.174305,609.208362 485.024191,608.775014 C484.01273,605.648272 483.93819,602.403344 483.877109,599.15738 C483.847086,597.75159 484.149386,597.4074 485.612225,597.317205 L485.612225,597.317205 Z M484.043788,582.973173 C484.223925,581.447124 484.510696,579.951139 485.114259,578.500771 C485.626719,577.228718 485.853444,575.822928 486.140214,574.461717 C486.803824,571.305947 488.252169,568.434238 489.639434,565.577042 C490.78548,563.228876 492.429493,561.10464 493.953413,558.965891 C495.401759,556.946364 497.165863,555.211934 499.021071,553.521047 C501.630992,551.142816 504.542177,549.318192 507.71011,547.747564 C510.228928,546.506612 512.853343,545.907389 515.52331,545.220045 C519.686139,544.142895 523.89452,544.023672 528.087373,544.680951 C529.218925,544.860304 530.334949,545.099786 531.436478,545.369332 C533.291686,545.818231 535.131365,546.356288 536.986573,546.805187 C538.223723,547.702985 539.672069,548.241042 541.029311,548.943936 C541.84407,549.362771 542.628806,549.82722 543.306909,550.469986 C543.458059,550.604759 543.623703,550.723982 543.804875,550.814176 C545.675612,551.651844 547.062877,553.162343 548.435648,554.538068 C549.672798,555.780056 551.241235,556.827141 551.919339,558.561571 C554.092375,560.401745 554.830524,563.168746 556.475572,565.353111 C556.595663,565.516913 556.701261,565.681751 556.776836,565.876654 C557.66717,568.194756 558.556469,570.528408 559.446803,572.84651 C559.506849,572.981283 559.552401,573.130571 559.582424,573.279858 C560.080389,575.913122 560.608378,578.5609 561.075286,581.207642 C561.226436,582.090926 561.256459,583.003238 561.241965,583.885485 C561.226436,585.126436 560.849597,585.470627 559.596917,585.500692 C558.843239,585.530757 558.089561,585.500692 557.334848,585.500692 L486.290329,585.500692 C483.998236,585.500692 483.771511,585.276761 484.043788,582.973173 L484.043788,582.973173 Z" id="Shape"></path>
            </g>
        </g>
    </g>
</svg>